# xmcd
#
# Track frame offsets: 
#        150
#        20362
#        40140
#        72367
#        92062
#        104317
#        124185
#        142155
#        157305
#        174900
#        198487
#        221895
#
# Disc length: 3237 seconds
#
# Revision: 7
# Processed by: cddbd v1.5.2PL0 Copyright (c) Steve Scherf et al.
# Submitted via: ExactAudioCopy v1.0b3
#
DISCID=b30ca30c
DTITLE=Ana Popovic - Hush!
DYEAR=2001
DGENRE=Blues
TTITLE0=Love Fever
TTITLE1=Mended
TTITLE2=Hometown
TTITLE3=I Won't Let You Down
TTITLE4=The Hustle Is On
TTITLE5=Downtown
TTITLE6=How Lonely Can a Woman Get
TTITLE7=Walk Away
TTITLE8=Girl of Many Words
TTITLE9=Minute 'Till Dawn
TTITLE10=Bring Your Fine Self Home
TTITLE11=How the Mighty Have Fallen
EXTD=YEAR: 2001 ID3G: 0
EXTT0=
EXTT1=
EXTT2=
EXTT3=
EXTT4=
EXTT5=
EXTT6=
EXTT7=
EXTT8=
EXTT9=
EXTT10=
EXTT11=
PLAYORDER=
